<svg id="Ribbon-Bow--Streamline-Atlas" xmlns="http://www.w3.org/2000/svg" viewBox="-0.5 -0.5 16 16" height="16" width="16">
  <desc>
    Ribbon Bow Streamline Icon: https://streamlinehq.com
  </desc>
  <defs></defs>
  <path d="M9.8875 5.1a2.4125 2.4125 0 0 1 -1.5812499999999998 2.25 2.43125 2.43125 0 0 1 -1.6125 0 2.3874999999999997 2.3874999999999997 0 0 1 -0.7062499999999999 -4.09375 2.375 2.375 0 0 1 3.025 0 2.40625 2.40625 0 0 1 0.875 1.84375Z" fill="none" stroke="#970b8a" stroke-miterlimit="10" stroke-width="1"></path>
  <path d="m9.0125 3.25625 2.175 -1.875a1.75625 1.75625 0 0 1 1.1375 -0.42500000000000004 1.73125 1.73125 0 0 1 1.7374999999999998 1.7000000000000002v4.88125a1.73125 1.73125 0 0 1 -2.875 1.30625l-2.175 -1.875" fill="none" stroke="#970b8a" stroke-miterlimit="10" stroke-width="1"></path>
  <path d="m5.9875 6.94375 -2.175 1.875a1.73125 1.73125 0 0 1 -2.875 -1.30625V2.65625a1.73125 1.73125 0 0 1 1.7374999999999998 -1.73125 1.75625 1.75625 0 0 1 1.1375 0.42500000000000004l2.175 1.90625" fill="none" stroke="#970b8a" stroke-miterlimit="10" stroke-width="1"></path>
  <path d="m2.8375 9.26875 -1.3 2.39375 1.7874999999999999 0 1.1937499999999999 1.7874999999999999 2.175 -6.1" fill="none" stroke="#970b8a" stroke-miterlimit="10" stroke-width="1"></path>
  <path d="m12.15625 9.26875 1.3125 2.39375 -1.7937500000000002 0 -1.1937499999999999 1.7874999999999999 -2.175 -6.1" fill="none" stroke="#970b8a" stroke-miterlimit="10" stroke-width="1"></path>
  <path d="m2.725 5.1 2.3874999999999997 0" fill="none" stroke="#970b8a" stroke-miterlimit="10" stroke-width="1"></path>
  <path d="m9.8875 5.1 2.3874999999999997 0" fill="none" stroke="#970b8a" stroke-miterlimit="10" stroke-width="1"></path>
</svg>